<svg width="15" height="14" viewBox="0 0 15 14" fill="none" xmlns="http://www.w3.org/2000/svg">
<path d="M0 1.60839C0 1.14218 0.163726 0.757566 0.491164 0.454545C0.818602 0.151511 1.24429 0 1.76819 0C2.28275 0 2.69906 0.149175 3.01715 0.447552C3.34459 0.755245 3.50832 1.15617 3.50832 1.65035C3.50832 2.0979 3.34928 2.47085 3.03118 2.76923C2.70375 3.07692 2.27339 3.23077 1.74012 3.23077H1.72609C1.21153 3.23077 0.795223 3.07692 0.477131 2.76923C0.159039 2.46154 0 2.07459 0 1.60839ZM0.182432 13.8462V4.5035H3.29782V13.8462H0.182432ZM5.02391 13.8462H8.13929V8.62937C8.13929 8.30302 8.17672 8.05127 8.25156 7.87413C8.38253 7.55711 8.58134 7.28904 8.84797 7.06993C9.1146 6.85081 9.44906 6.74126 9.85135 6.74126C10.8992 6.74126 11.4231 7.44522 11.4231 8.85315V13.8462H14.5385V8.48951C14.5385 7.10955 14.211 6.06294 13.5561 5.34965C12.9012 4.63636 12.0359 4.27972 10.96 4.27972C9.75312 4.27972 8.81289 4.7972 8.13929 5.83217V5.86014H8.12526L8.13929 5.83217V4.5035H5.02391C5.04261 4.80186 5.05197 5.72959 5.05197 7.28671C5.05197 8.84382 5.04261 11.0303 5.02391 13.8462Z" fill="white"/>
</svg>
