<svg width="18" height="14" viewBox="0 0 18 14" fill="none" xmlns="http://www.w3.org/2000/svg">
<path d="M18 1.63917C17.3306 1.91716 16.6174 2.10142 15.8737 2.19089C16.6388 1.75846 17.2226 1.07893 17.4971 0.259882C16.7839 0.662485 15.9964 0.946864 15.1571 1.10556C14.4799 0.42284 13.5146 0 12.4616 0C10.4186 0 8.77387 1.56994 8.77387 3.49456C8.77387 3.77148 8.79862 4.03775 8.85938 4.29124C5.7915 4.14959 3.07687 2.75751 1.25325 0.636923C0.934875 1.15988 0.748125 1.75846 0.748125 2.40284C0.748125 3.61278 1.40625 4.68533 2.38725 5.30627C1.79437 5.29562 1.21275 5.13266 0.72 4.87598C0.72 4.88663 0.72 4.90047 0.72 4.91432C0.72 6.61207 1.99912 8.02225 3.6765 8.3471C3.37612 8.42485 3.04875 8.46213 2.709 8.46213C2.47275 8.46213 2.23425 8.44935 2.01038 8.40248C2.4885 9.78604 3.84525 10.8032 5.4585 10.8362C4.203 11.766 2.60888 12.3263 0.883125 12.3263C0.5805 12.3263 0.29025 12.3135 0 12.2783C1.63462 13.2763 3.57188 13.8462 5.661 13.8462C12.4515 13.8462 16.164 8.52071 16.164 3.90462C16.164 3.75018 16.1584 3.60107 16.1505 3.45302C16.8829 2.96095 17.4982 2.34639 18 1.63917Z" fill="white"/>
</svg>
